HIERARCHY
ROOT Hips
{
	OFFSET 0.000000 0.000000 0.000000
	CHANNELS 6 Xposition Yposition Zposition Zrotation Yrotation Xrotation 
	JOINT LHipJoint
	{
		OFFSET 0.000000 0.000000 0.000000
		CHANNELS 3 Zrotation Yrotation Xrotation
		JOINT LeftUpLeg
		{
			OFFSET 1.363060 -1.794630 0.839290
			CHANNELS 3 Zrotation Yrotation Xrotation
			JOINT LeftLeg
			{
				OFFSET 2.448110 -6.726130 0.000000
				CHANNELS 3 Zrotation Yrotation Xrotation
				JOINT LeftFoot
				{
					OFFSET 2.562200 -7.039590 0.000000
					CHANNELS 3 Zrotation Yrotation Xrotation
					JOINT LeftToeBase
					{
						OFFSET 0.157640 -0.433110 2.322550
						CHANNELS 3 Zrotation Yrotation Xrotation
						End Site
						{
							OFFSET 0.000000 0.000000 0.000000
						}
					}
				}
			}
		}
	}
	JOINT RHipJoint
	{
		OFFSET 0.000000 0.000000 0.000000
		CHANNELS 3 Zrotation Yrotation Xrotation
		JOINT RightUpLeg
		{
			OFFSET -1.305520 -1.794630 0.839290
			CHANNELS 3 Zrotation Yrotation Xrotation
			JOINT RightLeg
			{
				OFFSET -2.542530 -6.985550 0.000000
				CHANNELS 3 Zrotation Yrotation Xrotation
				JOINT RightFoot
				{
					OFFSET -2.568260 -7.056230 0.000000
					CHANNELS 3 Zrotation Yrotation Xrotation
					JOINT RightToeBase
					{
						OFFSET -0.164730 -0.452590 2.363150
						CHANNELS 3 Zrotation Yrotation Xrotation
						End Site
						{
							OFFSET 0.000000 0.000000 0.000000
						}
					}
				}
			}
		}
	}
}
MOTION
Frames: 28
Frame Time: 0.008333
0.833067 17.141502 3.350302 1.260986 40.104118 26.983746 -6.531024 -0.920132 2.604466 -5.200670 -16.428667 -44.651645 -2.914614 -1.374927 5.921939 -0.449557 -3.998646 -1.906000 -0.131199 0.000000 -37.527900 8.899475 -0.461350 -0.710693 18.832578 12.462342 -11.389445 3.402868 -0.219691 17.254420 1.182658 11.569375 -9.027690 179.843700 0.000000 -34.062000
0.895799 17.104275 3.456839 0.709043 39.270461 26.477352 -6.605656 -0.947677 2.635361 -4.641415 -16.353067 -44.634051 -2.820375 -1.319104 6.262080 -0.442521 -3.952336 -1.776414 -0.133600 0.000000 -38.249200 8.877391 -0.564098 -0.777669 19.326375 12.153210 -10.775752 3.481239 -0.271242 17.582596 1.251684 12.193259 -9.053911 179.811200 0.000000 -34.928900
0.957696 17.065295 3.567459 0.195050 38.377859 25.989990 -6.693296 -0.963579 2.634221 -4.166086 -16.127152 -44.580247 -2.732554 -1.234354 6.729718 -0.450506 -3.954162 -1.383539 -0.149601 0.000000 -39.065299 8.880495 -0.671195 -0.837460 19.759799 11.817773 -10.187029 3.548717 -0.334917 18.007078 1.314451 12.804307 -9.123604 179.768600 0.000000 -35.711200
1.018819 17.025251 3.682394 -0.252930 37.446622 25.543149 -6.787708 -0.962282 2.607654 -3.809402 -15.773938 -44.512167 -2.654513 -1.123051 7.335876 -0.471997 -4.008450 -0.752566 -0.180901 0.000000 -39.872300 8.916693 -0.781806 -0.896361 20.105857 11.407649 -9.650629 3.601586 -0.411352 18.547211 1.369080 13.390448 -9.246149 179.713000 -0.000001 -36.313700
1.078605 16.984930 3.801952 -0.603474 36.497115 25.151517 -6.879505 -0.938928 2.561707 -3.603966 -15.324322 -44.441541 -2.589296 -0.989508 8.087970 -0.503126 -4.111153 0.061340 -0.228499 -0.000000 -40.545500 8.997169 -0.894827 -0.965743 20.332830 10.857465 -9.193727 3.635767 -0.502555 19.231205 1.414487 13.947102 -9.430330 179.641100 0.000000 -36.793200
1.136150 16.945301 3.926532 -0.828451 35.539500 24.833913 -6.957514 -0.889824 2.503039 -3.577145 -14.805093 -44.386238 -2.540316 -0.840335 8.984341 -0.538930 -4.249042 0.983692 -0.291000 -0.000000 -40.956300 9.134272 -1.009145 -1.050844 20.401014 10.126770 -8.857020 3.645185 -0.611768 20.094793 1.450305 14.469242 -9.666853 179.552400 -0.000000 -37.058601
1.190994 16.907466 4.055827 -0.928108 34.583890 24.596582 -7.014945 -0.815727 2.436441 -3.725684 -14.236553 -44.369174 -2.507241 -0.681587 10.024601 -0.574672 -4.408135 1.920669 -0.364400 0.000001 -41.002000 9.328445 -1.123857 -1.149430 20.301212 9.225561 -8.665306 3.625506 -0.739270 21.143189 1.475051 14.924437 -9.917821 179.455300 -0.000000 -36.902100
1.242362 16.872574 4.189046 -0.898150 33.637731 24.436170 -7.045292 -0.718133 2.366249 -4.041561 -13.651107 -44.387482 -2.489037 -0.519622 11.194672 -0.604712 -4.556816 2.777220 -0.438600 0.000001 -40.628100 9.581920 -1.237591 -1.266660 20.020961 8.139952 -8.638274 3.572938 -0.887610 22.393831 1.490430 15.307113 -10.132919 179.360700 -0.000000 -36.178700
1.289795 16.841627 4.325248 -0.735936 32.704743 24.350215 -7.042084 -0.599071 2.298138 -4.507094 -13.092952 -44.426900 -2.483920 -0.361620 12.461183 -0.623141 -4.647558 3.470510 -0.497800 -0.000000 -39.843899 9.896727 -1.347776 -1.408438 19.547397 6.858259 -8.798129 3.484009 -1.059591 23.865406 1.500136 15.629588 -10.246311 179.282899 0.000000 -34.698500
1.333062 16.815418 4.463216 -0.446031 31.785736 24.333312 -7.001909 -0.461783 2.237262 -5.096328 -12.603535 -44.465624 -2.489678 -0.214032 13.781204 -0.625071 -4.632958 3.937400 -0.524700 -0.000000 -38.730500 10.270839 -1.451514 -1.577165 18.876637 5.387954 -9.158326 3.354875 -1.257326 25.565626 1.508218 15.904679 -10.163557 179.244000 0.000000 -32.053900
1.372404 16.794556 4.601379 -0.050335 30.879326 24.371061 -6.927766 -0.312226 2.185907 -5.773508 -12.203435 -44.485340 -2.503489 -0.080951 15.116915 -0.607971 -4.487011 4.136440 -0.508600 0.000000 -37.421000 10.692350 -1.545827 -1.768657 18.031912 3.770207 -9.716866 3.183846 -1.479621 27.478623 1.516667 16.135141 -9.787806 179.270900 -0.000000 -27.970500
1.408265 16.779335 4.738172 0.433960 29.977723 24.453843 -6.822167 -0.155837 2.145209 -6.507983 -11.913770 -44.458320 -2.523204 0.033248 16.415776 -0.568686 -4.182657 4.058216 -0.443400 0.000000 -36.067000 11.151987 -1.627382 -1.977363 17.029774 2.055158 -10.465655 2.962661 -1.727097 29.583257 1.526941 16.326706 -8.946176 179.412100 0.000000 -21.191299
1.441530 16.769841 4.871823 0.972834 29.071467 24.564283 -6.693603 -0.000258 2.112255 -7.264207 -11.726920 -44.367514 -2.546280 0.126789 17.639216 -0.506232 -3.722486 3.714185 -0.335000 0.000000 -34.806599 11.631863 -1.693326 -2.193085 15.915679 0.314990 -11.381195 2.683450 -1.995463 31.823305 1.533878 16.466792 -7.451953 179.728600 0.000000 -10.595100
1.473257 16.765992 5.000664 1.529269 28.149963 24.681395 -6.553152 0.146475 2.081619 -8.008795 -11.619888 -44.196507 -2.570341 0.199001 18.752408 -0.420662 -3.124245 3.137684 -0.196900 -0.000000 -33.742400 12.111864 -1.740954 -2.404842 14.747637 -1.378061 -12.428260 2.336162 -2.276112 34.102661 1.523580 16.531449 -5.061201 0.304500 -0.000000 -5.444800
1.504614 16.767536 5.123271 2.063531 27.212903 24.771867 -6.415432 0.276147 2.047822 -8.713733 -11.552149 -43.927271 -2.593248 0.250354 19.733674 -0.314593 -2.425476 2.375643 -0.048199 0.000000 -32.932100 12.565819 -1.759768 -2.620894 13.596343 -3.029122 -13.593314 1.959169 -2.549986 36.407971 1.478844 16.583216 -2.149640 1.062500 -0.000000 -22.350700
1.536452 16.773591 5.239220 2.552757 26.262167 24.823456 -6.290276 0.385293 2.010360 -9.365493 -11.491162 -43.563177 -2.614690 0.281668 20.568208 -0.191916 -1.663316 1.485614 0.093800 -0.000000 -32.389500 12.975174 -1.741937 -2.842464 12.502016 -4.614009 -14.877354 1.598487 -2.808886 38.834362 1.399970 16.681544 0.678874 1.849799 0.000000 -34.625300
1.569540 16.783657 5.347481 2.958694 25.275524 24.819660 -6.189956 0.469462 1.955989 -9.946903 -11.367714 -43.112576 -2.633827 0.296590 21.252149 -0.058778 -0.884653 0.530281 0.214100 0.000000 -32.099800 13.324649 -1.693121 -3.052084 11.511085 -6.023483 -16.236552 1.256446 -3.054376 41.375442 1.290752 16.761257 3.383920 2.645100 0.000000 -42.446200
1.604654 16.797967 5.445832 3.228558 24.222045 24.723934 -6.132429 0.521394 1.860404 -10.429653 -11.084735 -42.569683 -2.647841 0.301111 21.793245 0.076229 -0.143254 -0.429507 0.302000 0.000000 -32.031300 13.597002 -1.623875 -3.237012 10.686538 -7.157212 -17.600197 0.926242 -3.284890 43.956982 1.150250 16.715002 6.088013 3.452399 0.000000 -47.726300
1.642048 16.814145 5.539198 3.427009 23.151984 24.600526 -6.101289 0.558102 1.755701 -10.856307 -10.727693 -41.974152 -2.661961 0.293558 22.175394 0.209203 0.563928 -1.332794 0.363001 0.000000 -32.121599 13.813012 -1.534793 -3.395881 9.981749 -8.101679 -19.007251 0.612944 -3.497850 46.551329 0.982911 16.512577 8.737208 4.222000 -0.000001 -51.183700
1.681926 16.832501 5.626210 3.522594 22.046728 24.419850 -6.107139 0.575816 1.621734 -11.213010 -10.223722 -41.318420 -2.674479 0.279831 22.416998 0.331516 1.195817 -2.136991 0.397401 -0.000000 -32.322601 13.965054 -1.434167 -3.528014 9.433860 -8.820035 -20.401406 0.318743 -3.691925 49.105765 0.790956 16.052778 11.299304 4.884400 -0.000000 -53.543200
1.724090 16.852558 5.708045 3.528988 20.918662 24.186884 -6.146725 0.579386 1.458954 -11.512234 -9.571242 -40.607249 -2.686742 0.262655 22.529719 0.437566 1.736815 -2.812411 0.411800 0.000000 -32.581800 14.060871 -1.326758 -3.637153 9.034098 -9.343360 -21.763633 0.046956 -3.867259 51.587712 0.578500 15.263017 13.692727 5.351900 0.000000 -55.239500
1.768145 16.873937 5.786011 3.463727 19.783275 23.910375 -6.214206 0.573838 1.269696 -11.766283 -8.781457 -39.848537 -2.700065 0.244314 22.529337 0.523743 2.178590 -3.346385 0.413100 -0.000000 -32.853700 14.110039 -1.215642 -3.729713 8.766613 -9.711920 -23.081045 -0.200586 -4.025546 53.973948 0.349934 14.085842 15.818603 5.539100 0.000000 -56.523000
1.813492 16.896343 5.861465 3.348573 18.659706 23.599637 -6.301917 0.564185 1.058910 -11.988006 -7.878081 -39.049285 -2.715680 0.226291 22.433959 0.588875 2.521088 -3.742410 0.407200 -0.000000 -33.103499 14.123292 -1.102921 -3.812276 8.609353 -9.969721 -24.344693 -0.423994 -4.169634 56.246278 0.108793 12.488918 17.580870 5.385199 0.000000 -57.549401
1.859430 16.919601 5.935648 3.207577 17.567125 23.265311 -6.400162 0.555142 0.832756 -12.190707 -6.897247 -38.212929 -2.734608 0.208857 22.257573 0.634560 2.775243 -4.015815 0.398601 0.000000 -33.308900 14.112111 -0.988397 -3.892512 8.533544 -10.161404 -25.549750 -0.624693 -4.303152 58.390454 -0.142018 10.478822 18.893791 4.871500 -0.000000 -58.371500
1.905239 16.943531 6.009640 3.058701 16.525596 22.916581 -6.501687 0.550069 0.599253 -12.380432 -5.875743 -37.349512 -2.756965 0.192305 22.020696 0.663499 2.952130 -4.193387 0.389000 0.000000 -33.461000 14.085008 -0.873093 -3.974726 8.518112 -10.320722 -26.695943 -0.804463 -4.429700 60.395869 -0.398417 8.111510 19.678833 4.030600 -0.000000 -58.880200
1.950346 16.968087 6.084268 2.916605 15.550346 22.563228 -6.599953 0.551127 0.366115 -12.559751 -4.853370 -36.467111 -2.782249 0.176227 21.739170 0.679877 3.069422 -4.305488 0.379100 -0.000000 -33.563900 14.048910 -0.756837 -4.062352 8.543211 -10.472654 -27.787073 -0.965141 -4.552262 62.251830 -0.655519 5.493477 19.893280 2.949800 -0.000000 -58.959500
1.994233 16.993220 6.160085 2.791621 14.652354 22.213900 -6.690151 0.559369 0.140727 -12.728623 -3.868413 -35.572062 -2.809401 0.159824 21.424643 0.688396 3.147976 -4.380793 0.369100 -0.000001 -33.631000 14.008833 -0.639810 -4.156431 8.592141 -10.631148 -28.827923 -1.107823 -4.672865 63.947554 -0.906506 2.774884 19.534598 1.757199 0.000000 -58.488200
2.036624 17.018878 6.237399 2.687223 13.836673 21.876099 -6.770553 0.574267 -0.070747 -12.881805 -2.950624 -34.672933 -2.836797 0.142525 21.088327 0.693276 3.206406 -4.444526 0.358500 0.000000 -33.682900 13.966786 -0.522947 -4.254827 8.656041 -10.796581 -29.826133 -1.232684 -4.791841 65.471666 -1.142800 0.127134 18.651080 0.594399 -0.000000 -57.409500
